<svg width="16" height="16" viewBox="0 0 16 16" fill="none" xmlns="http://www.w3.org/2000/svg">
<path d="M5.59221 1.69122C5.97396 1.29212 5.95989 0.659111 5.56079 0.27736C5.16168 -0.104392 4.52868 -0.0903252 4.14692 0.308779L1.27736 3.30878C0.907547 3.6954 0.907547 4.3046 1.27736 4.69122L4.14692 7.69122C4.52868 8.09033 5.16168 8.10439 5.56079 7.72264C5.95989 7.34089 5.97396 6.70788 5.59221 6.30878L4.34033 5H14C14.5523 5 15 4.55229 15 4C15 3.44772 14.5523 3 14 3H4.34033L5.59221 1.69122Z" fill="#000000"/>
<path d="M10.4078 14.3088C10.026 14.7079 10.0401 15.3409 10.4392 15.7226C10.8383 16.1044 11.4713 16.0903 11.8531 15.6912L14.7226 12.6912C15.0925 12.3046 15.0925 11.6954 14.7226 11.3088L11.8531 8.30878C11.4713 7.90967 10.8383 7.89561 10.4392 8.27736C10.0401 8.65911 10.026 9.29212 10.4078 9.69122L11.6597 11H2.00006C1.44777 11 1.00006 11.4477 1.00006 12C1.00006 12.5523 1.44777 13 2.00006 13H11.6597L10.4078 14.3088Z" fill="#000000"/>
</svg>